<svg width="21" height="21" viewBox="0 0 21 21" fill="none" xmlns="http://www.w3.org/2000/svg">
<path d="M13.475 8.64499L9.45876 4.62874C9.29482 4.46577 9.07305 4.3743 8.84188 4.3743C8.61072 4.3743 8.38895 4.46577 8.22501 4.62874C8.143 4.71008 8.0779 4.80686 8.03348 4.91349C7.98906 5.02011 7.96619 5.13448 7.96619 5.24999C7.96619 5.3655 7.98906 5.47987 8.03348 5.5865C8.0779 5.69312 8.143 5.7899 8.22501 5.87124L12.25 9.87874C12.332 9.96008 12.3971 10.0569 12.4415 10.1635C12.486 10.2701 12.5088 10.3845 12.5088 10.5C12.5088 10.6155 12.486 10.7299 12.4415 10.8365C12.3971 10.9431 12.332 11.0399 12.25 11.1212L8.22501 15.1287C8.06024 15.2923 7.96722 15.5147 7.9664 15.7469C7.96558 15.9791 8.05703 16.2021 8.22064 16.3669C8.38424 16.5316 8.6066 16.6247 8.83879 16.6255C9.07099 16.6263 9.294 16.5348 9.45876 16.3712L13.475 12.355C13.9666 11.8628 14.2427 11.1956 14.2427 10.5C14.2427 9.80436 13.9666 9.13718 13.475 8.64499Z" fill="black"/>
</svg>
