<svg width="17" height="15" viewBox="0 0 17 15" fill="none" xmlns="http://www.w3.org/2000/svg">
<path d="M16.9167 7.23887C16.9108 6.60316 16.6546 5.99538 16.2038 5.54721L11.02 0.351375C10.7936 0.126322 10.4873 0 10.1681 0C9.8489 0 9.54265 0.126322 9.31625 0.351375C9.203 0.463705 9.1131 0.597348 9.05176 0.744595C8.99041 0.891841 8.95883 1.04978 8.95883 1.20929C8.95883 1.36881 8.99041 1.52674 9.05176 1.67399C9.1131 1.82123 9.203 1.95488 9.31625 2.06721L13.2917 6.03054H1.20833C0.887863 6.03054 0.580519 6.15785 0.353913 6.38445C0.127306 6.61106 0 6.9184 0 7.23887C0 7.55934 0.127306 7.86669 0.353913 8.09329C0.580519 8.3199 0.887863 8.44721 1.20833 8.44721H13.2917L9.31625 12.4226C9.08872 12.6486 8.96025 12.9556 8.95912 13.2763C8.95799 13.5969 9.08428 13.9049 9.31021 14.1324C9.53614 14.3599 9.84321 14.4884 10.1639 14.4895C10.4845 14.4907 10.7925 14.3644 11.02 14.1385L16.2038 8.94262C16.6576 8.49149 16.914 7.87878 16.9167 7.23887Z" fill="black"/>
</svg>
