<svg width="10" height="11" viewBox="0 0 10 11" fill="none" xmlns="http://www.w3.org/2000/svg">
<path d="M8.69859 10.9984C8.53044 10.9979 8.36404 10.9639 8.20902 10.8982C8.054 10.8325 7.91342 10.7365 7.79542 10.6158L5 7.81391L2.20458 10.6176C2.02504 10.8012 1.7948 10.9261 1.54386 10.9759C1.29292 11.0256 1.03293 10.998 0.797774 10.8967C0.560284 10.8004 0.357118 10.6341 0.214807 10.4196C0.0724964 10.205 -0.00234509 9.95225 5.60158e-05 9.69418V2.29133C5.60158e-05 1.68364 0.239501 1.10083 0.665715 0.671116C1.09193 0.241408 1.67 0 2.27276 0L7.72724 0C8.02569 0 8.32123 0.0592671 8.59696 0.174417C8.8727 0.289568 9.12324 0.458346 9.33428 0.671116C9.54532 0.883887 9.71272 1.13648 9.82694 1.41448C9.94115 1.69248 9.99994 1.99043 9.99994 2.29133V9.69418C10.0025 9.95204 9.92791 10.2047 9.78594 10.4192C9.64397 10.6337 9.44119 10.8001 9.20404 10.8967C9.04395 10.9642 8.87211 10.9988 8.69859 10.9984ZM2.27276 0.916534C1.9111 0.916534 1.56426 1.06138 1.30853 1.3192C1.0528 1.57703 0.909136 1.92672 0.909136 2.29133V9.69418C0.908972 9.77054 0.931259 9.84524 0.973181 9.90884C1.0151 9.97244 1.07478 10.0221 1.14467 10.0515C1.21457 10.0809 1.29154 10.0888 1.36588 10.0741C1.44021 10.0595 1.50857 10.0229 1.56231 9.96914L4.68182 6.8433C4.76698 6.75795 4.88219 6.71004 5.00227 6.71004C5.12235 6.71004 5.23756 6.75795 5.32272 6.8433L8.43859 9.96822C8.49234 10.022 8.56069 10.0586 8.63503 10.0732C8.70936 10.0879 8.78633 10.08 8.85623 10.0506C8.92612 10.0212 8.9858 9.97152 9.02772 9.90792C9.06964 9.84432 9.09193 9.76962 9.09177 9.69326V2.29133C9.09177 1.92672 8.9481 1.57703 8.69237 1.3192C8.43664 1.06138 8.0898 0.916534 7.72815 0.916534H2.27276Z" fill="black"/>
</svg>
