<svg width="20" height="20" viewBox="0 0 20 20" fill="none" xmlns="http://www.w3.org/2000/svg">
<path d="M19.965 11.2375C19.6518 13.099 18.9068 14.8612 17.7897 16.3829C16.6727 17.9046 15.2146 19.1434 13.5325 20H6.47752C4.79393 19.1441 3.33426 17.9056 2.21548 16.384C1.09671 14.8623 0.349937 13.0997 0.0350223 11.2375C-0.0251143 10.8821 -0.00682325 10.5178 0.0886145 10.1701C0.184052 9.82249 0.354329 9.49992 0.587522 9.225C0.823286 8.94549 1.11727 8.72087 1.44892 8.56685C1.78057 8.41283 2.14186 8.33313 2.50752 8.33333H17.4917C17.8568 8.33345 18.2175 8.4133 18.5486 8.56732C18.8796 8.72133 19.1731 8.94579 19.4084 9.225C19.6423 9.49957 19.8133 9.82198 19.9095 10.1696C20.0056 10.5173 20.0246 10.8817 19.965 11.2375ZM11.6667 4.51167V5.83333H13.3334V4.51167C13.3348 4.02841 13.2403 3.54967 13.0554 3.10321C12.8704 2.65676 12.5987 2.25146 12.2559 1.91083C11.88 1.53263 11.6683 1.02154 11.6667 0.488333V0H10V0.488333C10.003 1.46336 10.3898 2.398 11.0767 3.09C11.2643 3.27609 11.413 3.49759 11.5143 3.74164C11.6156 3.98569 11.6674 4.24743 11.6667 4.51167ZM8.33336 5.345V6.66667H10V5.345C10.0014 4.86164 9.90684 4.38281 9.72188 3.93623C9.53693 3.48965 9.26523 3.0842 8.92252 2.74333C8.73493 2.55729 8.58623 2.33578 8.48508 2.0917C8.38393 1.84763 8.33236 1.58587 8.33336 1.32167V0H6.66669V1.32167C6.66525 1.80484 6.75966 2.28351 6.94448 2.72994C7.12929 3.17638 7.40082 3.58172 7.74336 3.9225C8.11976 4.30041 8.33179 4.81162 8.33336 5.345Z" fill="black"/>
</svg>
