<svg width="14" height="14" viewBox="0 0 14 14" fill="none" xmlns="http://www.w3.org/2000/svg">
<path d="M13.0173 12.2514L9.62542 8.8595C10.5065 7.78191 10.9397 6.40689 10.8354 5.01885C10.7311 3.63081 10.0973 2.33596 9.06511 1.40212C8.0329 0.468281 6.68124 -0.0330954 5.28973 0.00169682C3.89821 0.0364891 2.5733 0.604788 1.58904 1.58904C0.604788 2.5733 0.0364891 3.89821 0.00169682 5.28973C-0.0330954 6.68124 0.468281 8.0329 1.40212 9.06511C2.33596 10.0973 3.63081 10.7311 5.01885 10.8354C6.40689 10.9397 7.78191 10.5065 8.8595 9.62542L12.2514 13.0173L13.0173 12.2514ZM5.434 9.76734C4.57695 9.76734 3.73915 9.51319 3.02653 9.03704C2.31392 8.56089 1.75851 7.88411 1.43053 7.0923C1.10255 6.30049 1.01673 5.4292 1.18393 4.58861C1.35114 3.74803 1.76385 2.9759 2.36987 2.36987C2.9759 1.76385 3.74803 1.35114 4.58861 1.18393C5.4292 1.01673 6.30049 1.10255 7.0923 1.43053C7.88411 1.75851 8.56089 2.31392 9.03704 3.02653C9.51319 3.73915 9.76734 4.57695 9.76734 5.434C9.76605 6.58288 9.30909 7.68433 8.49671 8.49671C7.68433 9.30909 6.58288 9.76605 5.434 9.76734Z" fill="white"/>
</svg>
