<svg width="20" height="20" viewBox="0 0 20 20" fill="none" xmlns="http://www.w3.org/2000/svg">
<g clip-path="url(#clip0_133_287)">
<path d="M13.5209 20H6.47836L6.31169 19.9167C4.65288 19.0705 3.2188 17.8423 2.12755 16.3334C1.03631 14.8245 0.319112 13.0779 0.0350223 11.2375C-0.0251143 10.8821 -0.00682325 10.5178 0.0886145 10.1701C0.184052 9.82249 0.354329 9.49992 0.587522 9.225C0.823286 8.94549 1.11727 8.72087 1.44892 8.56685C1.78057 8.41283 2.14186 8.33313 2.50752 8.33333H17.4917C17.8568 8.33345 18.2175 8.4133 18.5486 8.56732C18.8796 8.72133 19.1731 8.94579 19.4084 9.225C19.6418 9.49978 19.8124 9.82228 19.9081 10.1699C20.0039 10.5176 20.0224 10.8819 19.9625 11.2375C19.6785 13.0775 18.9617 14.8237 17.8711 16.3326C16.7805 17.8415 15.3472 19.0698 13.6892 19.9167L13.5209 20ZM6.85419 18.3333H13.1417C14.5094 17.5795 15.6869 16.5234 16.5844 15.2454C17.482 13.9675 18.0759 12.5015 18.3209 10.9592C18.3409 10.8428 18.335 10.7234 18.3034 10.6095C18.2719 10.4957 18.2155 10.3903 18.1384 10.3008C18.0591 10.2065 17.9601 10.1307 17.8484 10.0788C17.7366 10.0268 17.6149 9.99991 17.4917 10H2.50752C2.3843 9.99986 2.26255 10.0267 2.15082 10.0787C2.0391 10.1307 1.94012 10.2065 1.86086 10.3008C1.78373 10.3903 1.7273 10.4957 1.69561 10.6095C1.66392 10.7233 1.65774 10.8427 1.67752 10.9592C1.92284 12.5015 2.51697 13.9674 3.41465 15.2454C4.31233 16.5233 5.48986 17.5794 6.85752 18.3333H6.85419ZM10 5.345C10.0014 4.86164 9.90684 4.38281 9.72188 3.93623C9.53693 3.48965 9.26523 3.0842 8.92252 2.74333C8.73493 2.55729 8.58623 2.33578 8.48508 2.0917C8.38393 1.84763 8.33236 1.58587 8.33336 1.32167V0H6.66669V1.32167C6.66525 1.80484 6.75966 2.28351 6.94448 2.72994C7.12929 3.17638 7.40082 3.58172 7.74336 3.9225C8.11976 4.30041 8.33179 4.81162 8.33336 5.345V6.66667H10V5.345ZM13.3334 4.51167C13.3348 4.02841 13.2403 3.54967 13.0554 3.10321C12.8704 2.65676 12.5987 2.25146 12.2559 1.91083C11.88 1.53263 11.6683 1.02154 11.6667 0.488333V0H10V0.488333C10.003 1.46336 10.3898 2.398 11.0767 3.09C11.2643 3.27609 11.413 3.49759 11.5143 3.74164C11.6156 3.98569 11.6674 4.24743 11.6667 4.51167V5.83333H13.3334V4.51167Z" fill="black"/>
</g>
<defs>
<clipPath id="clip0_133_287">
<rect width="20" height="20" fill="white"/>
</clipPath>
</defs>
</svg>
