<svg id="visual" viewBox="0 0 960 300" width="960" height="300" xmlns="http://www.w3.org/2000/svg" xmlns:xlink="http://www.w3.org/1999/xlink" version="1.1"><rect x="0" y="0" width="960" height="300" fill="#F2B33D"></rect><path d="M0 257L20 256.7C40 256.3 80 255.7 120 242.8C160 230 200 205 240 188.7C280 172.3 320 164.7 360 163.7C400 162.7 440 168.3 480 174.3C520 180.3 560 186.7 600 200.7C640 214.7 680 236.3 720 233.3C760 230.3 800 202.7 840 202.5C880 202.3 920 229.7 940 243.3L960 257L960 0L940 0C920 0 880 0 840 0C800 0 760 0 720 0C680 0 640 0 600 0C560 0 520 0 480 0C440 0 400 0 360 0C320 0 280 0 240 0C200 0 160 0 120 0C80 0 40 0 20 0L0 0Z" fill="#f2b33d"></path><path d="M0 139L20 140.7C40 142.3 80 145.7 120 156.5C160 167.3 200 185.7 240 194.5C280 203.3 320 202.7 360 194.2C400 185.7 440 169.3 480 157.7C520 146 560 139 600 145.8C640 152.7 680 173.3 720 174.8C760 176.3 800 158.7 840 160.7C880 162.7 920 184.3 940 195.2L960 206L960 0L940 0C920 0 880 0 840 0C800 0 760 0 720 0C680 0 640 0 600 0C560 0 520 0 480 0C440 0 400 0 360 0C320 0 280 0 240 0C200 0 160 0 120 0C80 0 40 0 20 0L0 0Z" fill="#f2a42d"></path><path d="M0 131L20 131.2C40 131.3 80 131.7 120 131.8C160 132 200 132 240 137.2C280 142.3 320 152.7 360 159.7C400 166.7 440 170.3 480 165.2C520 160 560 146 600 137C640 128 680 124 720 118.2C760 112.3 800 104.7 840 114.3C880 124 920 151 940 164.5L960 178L960 0L940 0C920 0 880 0 840 0C800 0 760 0 720 0C680 0 640 0 600 0C560 0 520 0 480 0C440 0 400 0 360 0C320 0 280 0 240 0C200 0 160 0 120 0C80 0 40 0 20 0L0 0Z" fill="#f3931f"></path><path d="M0 98L20 101.5C40 105 80 112 120 114.5C160 117 200 115 240 118C280 121 320 129 360 124C400 119 440 101 480 91.8C520 82.7 560 82.3 600 88.2C640 94 680 106 720 113.7C760 121.3 800 124.7 840 128.7C880 132.7 920 137.3 940 139.7L960 142L960 0L940 0C920 0 880 0 840 0C800 0 760 0 720 0C680 0 640 0 600 0C560 0 520 0 480 0C440 0 400 0 360 0C320 0 280 0 240 0C200 0 160 0 120 0C80 0 40 0 20 0L0 0Z" fill="#f38212"></path><path d="M0 74L20 74.5C40 75 80 76 120 73.3C160 70.7 200 64.3 240 69C280 73.7 320 89.3 360 90.8C400 92.3 440 79.7 480 76.7C520 73.7 560 80.3 600 79.8C640 79.3 680 71.7 720 74.7C760 77.7 800 91.3 840 88.5C880 85.7 920 66.3 940 56.7L960 47L960 0L940 0C920 0 880 0 840 0C800 0 760 0 720 0C680 0 640 0 600 0C560 0 520 0 480 0C440 0 400 0 360 0C320 0 280 0 240 0C200 0 160 0 120 0C80 0 40 0 20 0L0 0Z" fill="#f37008"></path><path d="M0 35L20 38.7C40 42.3 80 49.7 120 48.3C160 47 200 37 240 34.8C280 32.7 320 38.3 360 41.5C400 44.7 440 45.3 480 41.2C520 37 560 28 600 31.2C640 34.3 680 49.7 720 54.3C760 59 800 53 840 47C880 41 920 35 940 32L960 29L960 0L940 0C920 0 880 0 840 0C800 0 760 0 720 0C680 0 640 0 600 0C560 0 520 0 480 0C440 0 400 0 360 0C320 0 280 0 240 0C200 0 160 0 120 0C80 0 40 0 20 0L0 0Z" fill="#f25c05"></path></svg>