<svg id="visual" viewBox="0 0 960 300" width="960" height="300" xmlns="http://www.w3.org/2000/svg" xmlns:xlink="http://www.w3.org/1999/xlink" version="1.1"><path d="M0 64L14.5 62.5C29 61 58 58 87.2 59.5C116.3 61 145.7 67 174.8 67.5C204 68 233 63 262 56.5C291 50 320 42 349 41.5C378 41 407 48 436.2 51C465.3 54 494.7 53 523.8 55.5C553 58 582 64 611 69C640 74 669 78 698 79.5C727 81 756 80 785.2 78C814.3 76 843.7 73 872.8 69C902 65 931 60 945.5 57.5L960 55L960 0L945.5 0C931 0 902 0 872.8 0C843.7 0 814.3 0 785.2 0C756 0 727 0 698 0C669 0 640 0 611 0C582 0 553 0 523.8 0C494.7 0 465.3 0 436.2 0C407 0 378 0 349 0C320 0 291 0 262 0C233 0 204 0 174.8 0C145.7 0 116.3 0 87.2 0C58 0 29 0 14.5 0L0 0Z" fill="#f2b33d"></path><path d="M0 97L14.5 93.5C29 90 58 83 87.2 90C116.3 97 145.7 118 174.8 120C204 122 233 105 262 95.5C291 86 320 84 349 86.5C378 89 407 96 436.2 100.5C465.3 105 494.7 107 523.8 110C553 113 582 117 611 117.5C640 118 669 115 698 113C727 111 756 110 785.2 112.5C814.3 115 843.7 121 872.8 120.5C902 120 931 113 945.5 109.5L960 106L960 53L945.5 55.5C931 58 902 63 872.8 67C843.7 71 814.3 74 785.2 76C756 78 727 79 698 77.5C669 76 640 72 611 67C582 62 553 56 523.8 53.5C494.7 51 465.3 52 436.2 49C407 46 378 39 349 39.5C320 40 291 48 262 54.5C233 61 204 66 174.8 65.5C145.7 65 116.3 59 87.2 57.5C58 56 29 59 14.5 60.5L0 62Z" fill="#f2ab34"></path><path d="M0 118L14.5 116C29 114 58 110 87.2 117.5C116.3 125 145.7 144 174.8 147.5C204 151 233 139 262 132C291 125 320 123 349 126C378 129 407 137 436.2 142.5C465.3 148 494.7 151 523.8 152.5C553 154 582 154 611 153.5C640 153 669 152 698 152C727 152 756 153 785.2 152C814.3 151 843.7 148 872.8 147.5C902 147 931 149 945.5 150L960 151L960 104L945.5 107.5C931 111 902 118 872.8 118.5C843.7 119 814.3 113 785.2 110.5C756 108 727 109 698 111C669 113 640 116 611 115.5C582 115 553 111 523.8 108C494.7 105 465.3 103 436.2 98.5C407 94 378 87 349 84.5C320 82 291 84 262 93.5C233 103 204 120 174.8 118C145.7 116 116.3 95 87.2 88C58 81 29 88 14.5 91.5L0 95Z" fill="#f2a22c"></path><path d="M0 253L14.5 238C29 223 58 193 87.2 186.5C116.3 180 145.7 197 174.8 203.5C204 210 233 206 262 204C291 202 320 202 349 199.5C378 197 407 192 436.2 192.5C465.3 193 494.7 199 523.8 211.5C553 224 582 243 611 241C640 239 669 216 698 206.5C727 197 756 201 785.2 209C814.3 217 843.7 229 872.8 238.5C902 248 931 255 945.5 258.5L960 262L960 149L945.5 148C931 147 902 145 872.8 145.5C843.7 146 814.3 149 785.2 150C756 151 727 150 698 150C669 150 640 151 611 151.5C582 152 553 152 523.8 150.5C494.7 149 465.3 146 436.2 140.5C407 135 378 127 349 124C320 121 291 123 262 130C233 137 204 149 174.8 145.5C145.7 142 116.3 123 87.2 115.5C58 108 29 112 14.5 114L0 116Z" fill="#f29a23"></path><path d="M0 301L14.5 301C29 301 58 301 87.2 301C116.3 301 145.7 301 174.8 301C204 301 233 301 262 301C291 301 320 301 349 301C378 301 407 301 436.2 301C465.3 301 494.7 301 523.8 301C553 301 582 301 611 301C640 301 669 301 698 301C727 301 756 301 785.2 301C814.3 301 843.7 301 872.8 301C902 301 931 301 945.5 301L960 301L960 260L945.5 256.5C931 253 902 246 872.8 236.5C843.7 227 814.3 215 785.2 207C756 199 727 195 698 204.5C669 214 640 237 611 239C582 241 553 222 523.8 209.5C494.7 197 465.3 191 436.2 190.5C407 190 378 195 349 197.5C320 200 291 200 262 202C233 204 204 208 174.8 201.5C145.7 195 116.3 178 87.2 184.5C58 191 29 221 14.5 236L0 251Z" fill="#f2911b"></path></svg>